# xmcd CD database file generated by OrangeCD 5.2
#
# Track frame offsets:
#	183
#	11850
#	24193
#	37035
#	49808
#	63625
#	78040
#	90863
#	100718
#	110620
#	123838
#	138573
#	150898
#	163080
#	177348
#	191573
#	202433
#	213128
#	227768
#	240018
#	253773
#	267580
#	281350
#	295223
#
# Disc length: 4112 seconds
#
# Revision: 1
# Processed by: cddbd v1.5.1PL0 Copyright (c) Steve Scherf et al.
# Submitted via: OrangeCD 5.2
#
DISCID=47100e18
DTITLE=Various Artist - The Best Of Chess Blues Vol 1 First Time I Met The Blu
DTITLE=es
DYEAR=1989
DGENRE=Blues Chess
TTITLE0=Sonny Boy Williamson - Don't Start Me Talkin
TTITLE1=Little Walter - Key To The Highway
TTITLE2=Muddy Waters - Hoochie Coochie Man
TTITLE3=John Lee Hooker - Walkin' The Boogie
TTITLE4=Howlin' Wolf - Smokestack Lightning
TTITLE5=Otis Rush - So Many Roads, So Many Trains
TTITLE6=Jimmy Witherspoon - When The Lights Go Out
TTITLE7=Chuck Berry - Worried Life Blues
TTITLE8=Buddy Guy - First Time I Met The Blues
TTITLE9=Little Walter - Off The Wall
TTITLE10=Eddie Boyd - Third Degree
TTITLE11=Otis Spann - I'm Leaving You
TTITLE12=Elmore James - The Sun Is Shining
TTITLE13=Lowell Fulson - Reconsider Baby
TTITLE14=Willie Mabon - I Don't Know
TTITLE15=Howlin' Wolf - The Red Rooster
TTITLE16=Sonny Boy Williamson - Fattening Frogs For Snakes
TTITLE17=John Lee Hooker - Sugar Mama
TTITLE18=John Brim - Be Careful
TTITLE19=Chuck Berry - Wee Wee Hours
TTITLE20=Willie Dixon - Walking The Blues
TTITLE21=Albert King - Howlin' For My Darlin'
TTITLE22=Memphis Slim - Guess I'm A Fool
TTITLE23=Muddy Waters - Got My Mojo Working
EXTD=ID3G: 0
EXTT0=
EXTT1=
EXTT2=
EXTT3=
EXTT4=
EXTT5=
EXTT6=
EXTT7=
EXTT8=
EXTT9=
EXTT10=
EXTT11=
EXTT12=
EXTT13=
EXTT14=
EXTT15=
EXTT16=
EXTT17=
EXTT18=
EXTT19=
EXTT20=
EXTT21=
EXTT22=
EXTT23=
PLAYORDER=
